<svg width="16" height="17" viewBox="0 0 16 17" fill="none" xmlns="http://www.w3.org/2000/svg">
<path d="M0 4.50049C0 3.97006 0.210714 3.46135 0.585786 3.08627C0.960859 2.7112 1.46957 2.50049 2 2.50049H14C14.5304 2.50049 15.0391 2.7112 15.4142 3.08627C15.7893 3.46135 16 3.97006 16 4.50049V12.5005C16 13.0309 15.7893 13.5396 15.4142 13.9147C15.0391 14.2898 14.5304 14.5005 14 14.5005H2C1.46957 14.5005 0.960859 14.2898 0.585786 13.9147C0.210714 13.5396 0 13.0309 0 12.5005V4.50049ZM2 3.50049C1.73478 3.50049 1.48043 3.60585 1.29289 3.79338C1.10536 3.98092 1 4.23527 1 4.50049V4.71749L8 8.91749L15 4.71749V4.50049C15 4.23527 14.8946 3.98092 14.7071 3.79338C14.5196 3.60585 14.2652 3.50049 14 3.50049H2ZM15 5.88349L10.292 8.70849L15 11.6055V5.88349ZM14.966 12.7595L9.326 9.28849L8 10.0835L6.674 9.28849L1.034 12.7585C1.09083 12.9713 1.21632 13.1594 1.39099 13.2935C1.56566 13.4277 1.77975 13.5005 2 13.5005H14C14.2201 13.5005 14.4341 13.4279 14.6088 13.2939C14.7834 13.16 14.909 12.9721 14.966 12.7595ZM1 11.6055L5.708 8.70849L1 5.88349V11.6055Z" fill="#002356"/>
</svg>
